<svg xmlns="http://www.w3.org/2000/svg" viewBox="0 0 383.11 112.9"><defs><style>.cls-1{fill:#fff;}</style></defs><g id="Layer_2" data-name="Layer 2"><g id="Layer_1-2" data-name="Layer 1"><polygon class="cls-1" points="119.58 28.81 110.77 28.81 110.77 84.85 134.07 84.85 134.07 76.85 119.58 76.85 119.58 28.81"/><path class="cls-1" d="M163.77,71.48V28.81h-8.33V72c0,4-1.76,5.45-4.56,5.45s-4.56-1.44-4.56-5.45V28.81h-8.81V71.48c0,9,4.48,14.09,13.13,14.09S163.77,80.45,163.77,71.48Z"/><polygon class="cls-1" points="186.82 68.6 180.34 28.81 168.09 28.81 168.09 84.85 175.77 84.85 175.77 45.23 182.34 84.85 190.67 84.85 196.75 44.66 196.75 84.85 205.08 84.85 205.08 28.81 192.83 28.81 186.82 68.6"/><path class="cls-1" d="M231,28.81H218.12l-9,56h8.08l1.52-10.16h10.81l1.52,10.16H240ZM219.88,67.08l4.25-28.34,4.24,28.34Z"/><polygon class="cls-1" points="253.75 74.53 247.02 28.81 238.13 28.81 246.78 84.85 259.91 84.85 268.56 28.81 260.47 28.81 253.75 74.53"/><polygon class="cls-1" points="272.64 84.85 296.66 84.85 296.66 76.85 281.44 76.85 281.44 60.44 293.53 60.44 293.53 52.43 281.44 52.43 281.44 36.82 296.66 36.82 296.66 28.81 272.64 28.81 272.64 84.85"/><path class="cls-1" d="M326.92,78.05V69.4c0-5.84-1.44-10.08-5.85-11.93,3.92-1.84,5.76-5.6,5.76-11.37V41.7c0-8.65-3.92-12.89-13.05-12.89H300.5v56h8.8V62h3.05c4,0,5.76,1.92,5.76,7.12V78c0,4.56.32,5.44.8,6.88h9C327,82.77,326.92,80.77,326.92,78.05ZM318,48.11c0,4.48-2,5.92-5.29,5.92H309.3V36.82h4.25c3.12,0,4.48,1.76,4.48,5.76Z"/><path class="cls-1" d="M338.44,41.7c0-4,1.6-5.52,4.4-5.52s4.41,1.52,4.41,5.52V44h8.32V42.26c0-9-4.4-14.09-13-14.09s-13,5.12-13,14.09c0,16,17.22,18.18,17.22,29.7,0,4-1.76,5.45-4.57,5.45S337.72,76,337.72,72V68h-8.33V71.4c0,9,4.49,14.1,13.13,14.1s13.13-5.13,13.13-14.1C355.65,55.39,338.44,53.23,338.44,41.7Z"/><polygon class="cls-1" points="383.11 36.82 383.11 28.81 359.1 28.81 359.1 84.85 383.11 84.85 383.11 76.85 367.9 76.85 367.9 60.44 379.99 60.44 379.99 52.43 367.9 52.43 367.9 36.82 383.11 36.82"/><polygon class="cls-1" points="114.12 93.9 117.82 93.9 117.82 104.8 118.63 104.8 118.63 93.9 122.33 93.9 122.33 93.19 114.12 93.19 114.12 93.9"/><polygon class="cls-1" points="138.81 98.98 143.46 98.98 143.46 98.28 138.81 98.28 138.81 93.9 144.35 93.9 144.35 93.19 138 93.19 138 104.8 144.53 104.8 144.53 104.09 138.81 104.09 138.81 98.98"/><path class="cls-1" d="M164.67,104.27c-2.5,0-4-2.08-4-5.3s1.57-5.25,4.12-5.25a3.26,3.26,0,0,1,2.52,1.18l.49-.53a4,4,0,0,0-3-1.39c-3,0-5,2.31-5,6s2,6,4.87,6a4.38,4.38,0,0,0,3.45-1.66l-.5-.51A3.67,3.67,0,0,1,164.67,104.27Z"/><polygon class="cls-1" points="190.93 98.28 184.71 98.28 184.71 93.19 183.9 93.19 183.9 104.8 184.71 104.8 184.71 98.98 190.93 98.98 190.93 104.8 191.74 104.8 191.74 93.19 190.93 93.19 190.93 98.28"/><path class="cls-1" d="M215.61,100.31c0,1.12.07,2.25.11,3.38h-.07l-1.31-2.31-4.89-8.19h-.85V104.8h.78V97.59c0-1.12-.07-2.18-.11-3.29h.07l1.31,2.31,4.89,8.19h.85V93.19h-.78Z"/><path class="cls-1" d="M237.29,93c-2.78,0-4.77,2.31-4.77,6s2,6.06,4.77,6.06,4.79-2.38,4.79-6.06S240.09,93,237.29,93Zm0,11.29c-2.36,0-3.93-2.1-3.93-5.32s1.57-5.23,3.93-5.23,3.93,2,3.93,5.23S239.65,104.27,237.29,104.27Z"/><polygon class="cls-1" points="259 93.19 258.19 93.19 258.19 104.8 264.35 104.8 264.35 104.09 259 104.09 259 93.19"/><path class="cls-1" d="M283.55,93c-2.79,0-4.78,2.31-4.78,6s2,6.06,4.78,6.06,4.79-2.38,4.79-6.06S286.34,93,283.55,93Zm0,11.29c-2.36,0-3.93-2.1-3.93-5.32s1.57-5.23,3.93-5.23,3.92,2,3.92,5.23S285.9,104.27,283.55,104.27Z"/><path class="cls-1" d="M308.57,99.78h2.78v3.61a3.79,3.79,0,0,1-2.61.88c-2.64,0-4.19-2.08-4.19-5.3s1.64-5.25,4.3-5.25a3.42,3.42,0,0,1,2.67,1.18l.48-.53A4.19,4.19,0,0,0,308.85,93c-3.08,0-5.14,2.31-5.14,6s2,6,5,6a4.66,4.66,0,0,0,3.45-1.32v-4.6h-3.55Z"/><rect class="cls-1" x="328.55" y="93.19" width="0.81" height="11.6"/><polygon class="cls-1" points="347.04 98.98 351.69 98.98 351.69 98.28 347.04 98.28 347.04 93.9 352.58 93.9 352.58 93.19 346.23 93.19 346.23 104.8 352.76 104.8 352.76 104.09 347.04 104.09 347.04 98.98"/><path class="cls-1" d="M373,98.81,371.28,98c-.84-.39-2-.9-2-2.24s1-2.08,2.57-2.08a3.7,3.7,0,0,1,2.76,1.2l.46-.55A4.4,4.4,0,0,0,371.85,93c-1.94,0-3.38,1.18-3.38,2.85s1.33,2.45,2.36,2.89l1.75.79c1.15.51,2.08,1,2.08,2.43s-1.1,2.33-2.88,2.33a4.56,4.56,0,0,1-3.4-1.57l-.53.57a5.15,5.15,0,0,0,3.93,1.74c2.25,0,3.71-1.34,3.71-3.12S374.35,99.39,373,98.81Z"/><polygon class="cls-1" points="56.52 91.68 49.08 95.98 41.64 91.69 43.98 90.34 49.08 93.28 54.19 90.33 56.52 91.68"/><polygon class="cls-1" points="46.39 88.23 43.98 89.62 38.71 86.58 41.12 85.19 46.39 88.23"/><polygon class="cls-1" points="59.45 86.58 54.19 89.62 51.78 88.23 57.04 85.18 59.45 86.58"/><path class="cls-1" d="M48.89,0,0,28.23V84.67L48.89,112.9,97.77,84.67V28.23ZM75.48,70.19l-19,11,3.77,2.18-.13.07-2.43,1.41,3,1.75L54.8,90l3,1.7-8.67,5-8.67-5,3-1.71-5.88-3.4,3-1.75L38,83.36l3.86-2.23L23,70.24V56.07l-.92-.53V39.31l.09-.06L48.29,24.16l.91.52L75.48,39.85Z"/><polygon class="cls-1" points="74.87 55.86 63.18 62.62 61.35 61.56 49.36 68.48 37.97 61.89 61.75 48.14 61.75 32.64 74.86 40.2 74.87 55.86"/><polygon class="cls-1" points="52.66 82.65 49.16 84.67 48.04 84.02 45.6 82.61 49.09 80.59 52.66 82.65"/><polygon class="cls-1" points="74.87 56.58 74.87 69.84 61.75 77.41 61.75 64.17 63.8 62.98 74.87 56.58"/><polygon class="cls-1" points="53.57 89.98 49.08 92.57 44.6 89.98 47.01 88.59 49.08 89.78 51.16 88.58 53.57 89.98"/><polygon class="cls-1" points="61.13 32.64 61.13 47.78 48.01 55.37 48.01 40.19 61.13 32.64"/><polygon class="cls-1" points="47.12 55.88 23.59 69.5 23.59 56.43 24.51 56.96 24.51 40.73 34.64 34.89 34.64 48.63 47.12 55.88"/><polygon class="cls-1" points="60.82 32.11 47.4 39.83 47.4 55.33 35.26 48.28 35.26 34.53 50.14 25.94 60.82 32.11"/><polygon class="cls-1" points="48.75 70.97 37.11 77.7 23.87 70.05 35.51 63.32 48.75 70.97"/><polygon class="cls-1" points="61.13 64.52 61.13 77.41 49.99 70.97 60.17 65.08 61.13 64.52"/><polygon class="cls-1" points="60.82 77.94 53.28 82.29 49.09 79.87 44.98 82.25 42.42 80.77 37.73 78.06 49.37 71.33 60.82 77.94"/></g></g></svg>