<svg id="Layer_1" data-name="Layer 1" xmlns="http://www.w3.org/2000/svg" viewBox="0 0 730 180"><defs><style>.cls-1{fill:#fff;}</style></defs><title>logo-signupgenius-white-r_1</title><path class="cls-1" d="M65,130.4c-9.43-4.61-20.58-6.93-31-7.44-5.3-.26-10.68.24-15.49,2.6-5,2.44-8.13,7.81-9.64,12.93,0,.11,0,.2-.06.3a16.75,16.75,0,0,0-4.88,5.67c-3,5.57-2.68,9.68,1.8,14.23,3.63,3.69,8.52,5.85,13.36,7.43,9.6,3.14,22.47,4.56,31.27-1.44a10.36,10.36,0,0,0,3.39-4.93c.23-.63.84-3.35-.77-2.25-5.92,4-13.91,4-20.75,3.07s-13.86-3.13-19.48-7.15a25.14,25.14,0,0,1-4-3.77A10.5,10.5,0,0,1,7,147l-.26-.75q-.39-1.64,0-.61a11.62,11.62,0,0,1,2.07-1.29c2.06,6.52,11.43,9.64,17.74,11a64.73,64.73,0,0,0,16.49,1.32c4.34-.2,9.86-.87,12.77-4.52s4.92-7.8.56-10.84-10.21-4.08-15.22-5.08c-8.14-1.61-19.4-3.16-27.88.16a6.7,6.7,0,0,1,.26-2l.26-.24a10.19,10.19,0,0,1,2.09-1.32A19.32,19.32,0,0,1,21.62,131a48.1,48.1,0,0,1,14.23,0A79.47,79.47,0,0,1,60.67,138C62.51,138.85,66.62,131.18,65,130.4Zm-17.4,16.24a25.29,25.29,0,0,1,3.88,1.77c-.28.05-.56.14-.85.19a54.43,54.43,0,0,1-16.3-.23c-3.76-.54-12.28-2.3-17.28-5.93,1.09-.07,2.17-.1,3.22-.13A72.58,72.58,0,0,1,47.63,146.65Z"/><path class="cls-1" d="M102.62,57.31a26,26,0,0,1,1.07,12c-.06.32-.14.64-.22,1l-.14.43q-.2.57-.42,1.13l-.14.37-.12.24c-.36.72-.79,1.4-1.22,2.09l0,.07c-.36.5-.75,1-1.13,1.45-3.94,4.88-10.75,9.35-16.7,13.25C71,97.52,54.32,108.06,55.8,125.42c.24,2.75,2.21,4.22,4.82,2.78s4.89-5,4.63-8c0-.56-.08-1.12-.09-1.69,0-.06.06-.93.05-1.07.06-.4.14-.8.22-1.2v-.07l.14-.37c.05-.15.28-.67.37-.89l.47-.83.16-.28,0-.07c.43-.6.91-1.16,1.39-1.72,2.06-2.4,7.12-6.18,10.62-8.54,9.57-6.43,20-12.3,27.18-21.55a34.6,34.6,0,0,0,6.74-28.18A55.19,55.19,0,0,0,102.62,57.31Z"/><path class="cls-1" d="M16.08,55.68a32.13,32.13,0,0,1,9.68-16.62c11.55-11,27.84-13.75,43-10.17,10.52,2.49,21,8.52,27.82,17.19a77.3,77.3,0,0,1,11.19-5.49C100.42,27.91,86.2,20,72.32,16.68,46.14,10.49,19,25.7,9.14,50.39A39,39,0,0,0,6.29,68.82C7,74.92,9.13,80.6,11.62,86.16s5.31,10.92,7.5,16.59c1.67,4.34,3.29,9.8,1.7,14-.76,2-1.16,6.09,1.9,6.38s5.48-3.18,6.41-5.61c5.6-14.72-3.89-28.61-9.53-41.69C16.82,69.35,14.68,62.71,16.08,55.68Z"/><path class="cls-1" d="M116,35.54c-14.65,2.92-27.32,11.41-38.55,20.91-5.85,5-11.67,10-17,15.52a95.29,95.29,0,0,0-7,7.83c-1.91-9.12-5.38-18.08-11.17-25.18-5-6.09-15,7.89-10.75,13.09,6.7,8.22,10.12,19.33,11,29.79.41,4.82,4.55,5.52,7.95,2.56,4.89-4.25,8-10,12.28-14.85C67.41,80,72.89,75.47,78.14,70.86c10.23-9,21.32-17,34.92-19.74,4-.79,6.86-5.7,7.54-9.33C121.21,38.52,120,34.75,116,35.54Z"/><path class="cls-1" d="M160.95,84c-2.07-3.59-6.94-10-11.49-10-2.79,0-6.54,3.75-6.54,6.54,0,8.38,36,4,36,23.53,0,16.67-17.31,26.17-32.23,26.17-13.48,0-21.22-9.17-24.73-21.38l16.75-1.52c2.71,3.67,8,8.06,12.76,8.06,3.59,0,7.42-2.47,7.42-6.38,0-9.81-34.06.48-34.06-21.38,0-17,13.08-26.41,29.2-26.41,8.7,0,23.93,6.78,25,16.51C173.23,80.37,167,82,160.95,84Z"/><path class="cls-1" d="M187.27,78.3c-.16-2-.16-4.07-.16-6.14v-3a38.94,38.94,0,0,1,.16-4.31l17.07-1.2.72,13.4Zm.48,50.82L187.35,86,204,85.88l.32,42Z"/><path class="cls-1" d="M245.11,88.51c2.71,1.28,4,5.19,4,8,0,11.17-14.76,13.32-23.21,13.32l.08.24a8.15,8.15,0,0,0-2.71,1.83l.16.24c3.67-.24,7.26-.48,10.93-.48,8.93,0,18.75,1.12,18.75,12.44,0,13.64-14.44,16-25.13,16-2.23,0-4.47-.24-6.7-.16-.32-4.07-.16-8.06-.32-12.13,2.87.24,5.82.4,8.7.4,2.23,0,12.61,0,12.61-3.19,0-2.87-5.27-2.87-7.26-2.87-5.58,0-11.17,1.2-16.75,1.2-.64,0-1.6.16-1.83-.64-3-.48-6.78-3.91-6.78-7.1,0-4.23,3.67-7.58,7.42-8.86-2.87-2.07-4-5.58-4-8.94,0-9,8.06-15.48,16.75-15.48A24,24,0,0,1,239,84c3.83-1.36,6.94-5.27,8.22-9l8.22,4.55a6.87,6.87,0,0,1,.08,1.28C255.48,84.2,247.9,87.55,245.11,88.51Zm-14.28.4c-4.15,0-6,5.19-6,8.62,0,3.27,1.6,6.14,5.19,6.14,4.15,0,5.82-3,5.82-6.78C235.85,94,234.34,88.91,230.83,88.91Z"/><path class="cls-1" d="M284.59,129.52c0-2.87.16-5.74.16-8.62,0-6.3.48-24-8.7-24A7.55,7.55,0,0,0,271.91,98l-1.2,29.6-13.56.48.48-43.88c4.87.16,9.65.64,14.52,1a22.58,22.58,0,0,0-.16,2.31,9.92,9.92,0,0,0,.24,2.15c2.31-2.55,6.22-3,9.41-3,11.09,0,18.11,8.3,18.19,19.07l.24,22.66Z"/><path class="cls-1" d="M359.1,102.79c-2,17.79-5.35,26.41-25.13,26.41-13.48,0-23.21-7.1-27.36-19.94a30.64,30.64,0,0,1-1.75-8.85V62.82l21.62-.4c-.48,9.89-1.83,19.7-1.83,29.6,0,6.38.48,22.5,9.65,22.5,10.53,0,8.06-37.49,8.06-44.44a49.35,49.35,0,0,1,.32-6.86H360.3V91.78C360.3,95.45,359.5,99.12,359.1,102.79Z"/><path class="cls-1" d="M384.23,127.44c0,2.31.08,4.63.08,6.86,0,3-.08,6-.24,8.94H366.84l-.24-61,15.64-.72.08,5.5a21.6,21.6,0,0,1,8.62-2c11.65,0,19.7,10.45,19.7,21.54C410.64,121.38,398.11,129.28,384.23,127.44Zm-.72-32.95-.08-.32c-.4,1-.32,4.55-.32,5.9,0,6.3.16,12.68.32,19v-.32c7.9-3.67,12.52-1,12.52-12.76C396,97.21,391.49,95,383.51,94.49Z"/><path class="cls-1" d="M440,129.44c-16.67,0-26.25-12-26.25-28.08,0-18.27,12.52-38.93,32.55-38.93,13.08,0,23,5.19,25.93,18.67-7.1.8-14.12,2.39-21.3,2.39-.32-4-2.47-8.78-7.1-8.78-9,0-10.13,15.88-10.13,22.34,0,6.94,2.07,18.75,11.09,18.75,4,0,8.93-6.62,8.93-10.37a1.49,1.49,0,0,0-.4-1.12,138.5,138.5,0,0,1-14.12,1.2l1.2-13.32L475.65,90a36.42,36.42,0,0,1,.64,7.18C476.29,119.46,460.81,129.44,440,129.44Z"/><path class="cls-1" d="M521.44,109.81c-8.38-.56-16.67-.64-25-.64a15.39,15.39,0,0,0-1.91.08c.64,5.82,1.2,9.09,8,9.09a9.73,9.73,0,0,0,7.66-3.43c2.23,1.36,4.55,2.39,6.78,3.75-5.74,7.74-10.45,9.57-19.94,9.57-10.21,0-17.71-10.05-17.71-19.7,0-11.49,10.61-24.81,22.66-24.81,13.64,0,19.7,10,19.7,22.58A25.89,25.89,0,0,1,521.44,109.81ZM502.05,90.9c-3.91,0-8,5.11-8,8.86a2.55,2.55,0,0,0,.24,1.12h-.16a9.63,9.63,0,0,1,1.52-.08h12.92a9.22,9.22,0,0,0,.64-3.59C509.23,92.9,506,90.9,502.05,90.9Z"/><path class="cls-1" d="M551.35,129.52c0-2.87.16-5.74.16-8.62,0-6.3.48-24-8.7-24A7.55,7.55,0,0,0,538.67,98l-1.2,29.6-13.56.48.48-43.88c4.87.16,9.65.64,14.52,1a22.55,22.55,0,0,0-.16,2.31,9.92,9.92,0,0,0,.24,2.15c2.31-2.55,6.22-3,9.41-3,11.09,0,18.11,8.3,18.19,19.07l.24,22.66Z"/><path class="cls-1" d="M573.29,78.3c-.16-2-.16-4.07-.16-6.14v-3a38.93,38.93,0,0,1,.16-4.31l17.07-1.2.72,13.4Zm.48,50.82L573.37,86,590,85.88l.32,42Z"/><path class="cls-1" d="M634.4,127c-4,0-8,.32-12,.32-1.2,0-.08-1.28-1.12-1.67A16.87,16.87,0,0,1,611.9,129a20,20,0,0,1-7.5-1.52c-7.74-3.19-8.22-18.91-8.22-26.09a119.72,119.72,0,0,1,.8-14.12h12.68c0,6.78-.16,13.56-.16,20.26,0,4.95.48,12.36,7,12.36,1.36,0,4.47-.72,3.67-2.71v.32c1.36-3.35,1.52-25.53,1.36-30.23l13.56.64C635.11,100.88,634.4,114,634.4,127Z"/><path class="cls-1" d="M675.48,96.09c-5.58-2.87-10.77-5.34-17.07-5.34-2.87,0-6.14.08-6.14,3.75,0,6.46,23,2.23,23,18.91,0,8.86-7.82,19.15-17.23,19.15-5.58,0-13.48-4.87-18.59-7.26l3.51-9.73c4.07,2.55,10.53,5.82,15.4,5.82,2.71,0,5.19-1.52,5.19-4.47,0-7-22.1-.88-22.1-18.91,0-7,5.66-17.15,13.08-18.59a25.36,25.36,0,0,1,4.95-.4A29.13,29.13,0,0,1,678,85.88Z"/><path class="cls-1" d="M728,78.15a21,21,0,0,1-42.07,0c0-11.36,9.36-20.47,21.1-20.47S728,66.79,728,78.15Zm-36.82,0c0,9.11,6.74,16.35,16,16.35,9,0,15.6-7.24,15.6-16.23S716.17,61.8,707.05,61.8,691.2,69.16,691.2,78.15Zm12.61,10.74h-4.74V68.42a41.38,41.38,0,0,1,7.86-.62c3.87,0,5.62.62,7.12,1.5a5.67,5.67,0,0,1,2,4.49c0,2.25-1.75,4-4.24,4.74v.25c2,.75,3.12,2.25,3.74,5,.62,3.12,1,4.37,1.5,5.12h-5.12c-.62-.75-1-2.62-1.62-5-.38-2.25-1.62-3.25-4.24-3.25h-2.25Zm.13-11.61h2.25c2.62,0,4.74-.87,4.74-3,0-1.87-1.37-3.12-4.37-3.12a11.38,11.38,0,0,0-2.62.25Z"/></svg>